{"title":"Sta dixtya tou pepromenou ep.42.TVrip.By.Ari Greek Subs","uid":12310919,"size":649534614,"categoryP":"video","categoryS":"tv_shows","magnet":"?xt=urn:btih:ef130473dc51f9eaf554e800dab620df8797a8cf&amp;dn=Sta+dixtya+tou+pepromenou+ep.42.TVrip.By.Ari+Greek+Subs&amp;tr=udp%3A%2F%2Ftracker.openbittorrent.com%3A80&amp;tr=udp%3A%2F%2Fopen.demonii.com%3A1337&amp;tr=udp%3A%2F%2Ftracker.coppersurfer.tk%3A6969&amp;tr=udp%3A%2F%2Fexodus.desync.com%3A6969","seeders":0,"leechers":0,"uploader":"Aris2015","files":1,"time":1440866571,"description":"General\nComplete name                    : C:UsersVideossta.dixtya.tou.pepromenou.ep.42.TVrip.By.Ari.avi\nFormat                           : AVI\nFormat/Info                      : Audio Video Interleave\nFile size                        : 619 MiB\nDuration                         : 1h 0mn\nOverall bit rate                 : 1 437 Kbps\n\nVideo\nID                               : 0\nFormat                           : MPEG-4 Visual\nFormat profile                   : Simple@L3\nFormat settings, BVOP            : No\nFormat settings, QPel            : No\nFormat settings, GMC             : No warppoints\nFormat settings, Matrix          : Default (H.263)\nCodec ID                         : XVID\nCodec ID/Hint                    : XviD\nDuration                         : 1h 0mn\nBit rate                         : 1 296 Kbps\nWidth                            : 720 pixels\nHeight                           : 576 pixels\nDisplay aspect ratio             : 16:9\nFrame rate                       : 25.000 fps\nStandard                         : PAL\nColor space                      : YUV\nChroma subsampling               : 4:2:0\nBit depth                        : 8 bits\nScan type                        : Progressive\nCompression mode                 : Lossy\nBits/(Pixel*Frame)               : 0.125\nStream size                      : 559 MiB (90%)\nWriting library                  : XviD 64\n\nAudio\nID                               : 1\nFormat                           : MPEG Audio\nFormat version                   : Version 1\nFormat profile                   : Layer 3\nMode                             : Joint stereo\nMode extension                   : MS Stereo\nCodec ID                         : 55\nCodec ID/Hint                    : MP3\nDuration                         : 1h 0mn\nBit rate mode                    : Constant\nBit rate                         : 128 Kbps\nChannel(s)                       : 2 channels\nSampling rate                    : 44.1 KHz\nCompression mode                 : Lossy\nStream size                      : 55.2 MiB (9%)\nAlignment                        : Aligned on interleaves\nInterleave, duration             : 26 ms (0.65 video frame)\n &lt;a href=&quot;\nhttp://imageshack.com/a/img661/672/azgLOX.jpg&quot; rel=&quot;nofollow&quot; target=&quot;_NEW&quot;&gt;\nhttp://imageshack.com/a/img661/672/azgLOX.jpg&lt;/a&gt;","torrent":{"xt":"urn:btih:ef130473dc51f9eaf554e800dab620df8797a8cf","amp;dn":"Sta+dixtya+tou+pepromenou+ep.42.TVrip.By.Ari+Greek+Subs","amp;tr":["udp%3A%2F%2Ftracker.openbittorrent.com%3A80","udp%3A%2F%2Fopen.demonii.com%3A1337","udp%3A%2F%2Ftracker.coppersurfer.tk%3A6969","udp%3A%2F%2Fexodus.desync.com%3A6969"],"infoHash":"ef130473dc51f9eaf554e800dab620df8797a8cf","infoHashBuffer":{"type":"Buffer","data":[239,19,4,115,220,81,249,234,245,84,232,0,218,182,32,223,135,151,168,207]},"announce":[],"urlList":[]}}